700 0 1 0           
33 Autodesk Inventor 20.0.13800.0000 18 ASM 221.1.0.540 NT 24 Sat Apr 16 14:12:23 2016 
1 9.9999999999999995e-007 1e-010 
body $1 -1 $-1 $2 $-1 $-1 #
DXID-attrib $-1 -1 $-1 $-1 $0 @10 ASM ENTITY @63 F:\Documents\Inventor\Klappquad\arris_schwingungsdämpfer.ipt\2 #
lump $-1 -1 $-1 $-1 $3 $0 #
shell $-1 -1 $-1 $-1 $-1 $4 $-1 $2 #
face $-1 -1 $-1 $5 $6 $3 $-1 $7 forward single #
face $-1 -1 $-1 $8 $9 $3 $-1 $10 forward single #
loop $-1 -1 $-1 $11 $12 $4 #
torus-surface $-1 -1 $-1 4.3563036775768042e-015 -10.300000000000008 0 4.2294210461910713e-016 -1 0 7.5500000000000007 0.20000000000000004 0 0 -1 forward_v I I I I #
face $-1 -1 $-1 $13 $14 $3 $-1 $15 forward single #
loop $-1 -1 $-1 $16 $17 $5 #
cone-surface $-1 -1 $-1 4.0390970991124749e-015 -9.5500000000000078 0 4.2294210461910713e-016 -1 0 7.7500000000000018 3.4467750693215769e-015 0 1 I I -0 1 7.7500000000000018 reversed I I I I #
loop $-1 -1 $-1 $-1 $18 $4 #
coedge $-1 -1 $-1 $12 $12 $19 $20 forward $6 $-1 #
face $-1 -1 $-1 $21 $22 $3 $-1 $23 forward single #
loop $-1 -1 $-1 $24 $25 $8 #
plane-surface $-1 -1 $-1 7.7500000000000044 -10.500000000000004 0 4.2294210461910713e-016 -1 0 0 0 10 reverse_v I I I I #
loop $-1 -1 $-1 $-1 $19 $5 #
coedge $-1 -1 $-1 $17 $17 $26 $27 reversed $9 $-1 #
coedge $-1 -1 $-1 $18 $18 $28 $29 forward $11 $-1 #
coedge $-1 -1 $-1 $19 $19 $12 $20 reversed $16 $-1 #
edge $-1 -1 $-1 $30 -3.1415926535897931 $30 3.1415926535897931 $19 $31 forward @7 tangent #
face $-1 -1 $-1 $32 $33 $3 $-1 $34 forward single #
loop $-1 -1 $-1 $35 $36 $13 #
torus-surface $-1 -1 $-1 3.7218905206481432e-015 -8.800000000000006 0 4.2294210461910713e-016 -1 0 7.5500000000000007 0.20000000000000004 0 0 -1 forward_v I I I I #
loop $-1 -1 $-1 $-1 $28 $8 #
coedge $-1 -1 $-1 $25 $25 $37 $38 reversed $14 $-1 #
coedge $-1 -1 $-1 $26 $26 $17 $27 forward $35 $-1 #
edge $-1 -1 $-1 $39 -3.1415926535897931 $39 3.1415926535897931 $17 $40 forward @7 tangent #
coedge $-1 -1 $-1 $28 $28 $18 $29 reversed $24 $-1 #
edge $-1 -1 $-1 $41 -3.1415926535897931 $41 3.1415926535897931 $28 $42 forward @7 tangent #
vertex $-1 -1 $-1 $20 $43 #
ellipse-curve $-1 -1 $-1 4.3563036775768042e-015 -10.300000000000008 0 4.2294210461910713e-016 -1 0 -7.7500000000000018 -3.2612801348363977e-015 9.4910126933919878e-016 1 I I #
face $-1 -1 $-1 $44 $45 $3 $-1 $46 forward single #
loop $-1 -1 $-1 $47 $48 $21 #
plane-surface $-1 -1 $-1 4.5000000000000036 -8.6000000000000032 0 -4.2294210461910713e-016 1 0 0 0 -10 reverse_v I I I I #
loop $-1 -1 $-1 $-1 $26 $13 #
coedge $-1 -1 $-1 $36 $36 $49 $50 forward $22 $-1 #
coedge $-1 -1 $-1 $37 $37 $25 $38 forward $51 $-1 #
edge $-1 -1 $-1 $52 0 $52 6.2831853071795862 $25 $53 forward @7 unknown #
vertex $-1 -1 $-1 $27 $54 #
ellipse-curve $-1 -1 $-1 3.7218905206481432e-015 -8.800000000000006 0 -4.2294210461910713e-016 1 0 -7.7500000000000018 -3.2612801348363977e-015 9.4910126933919878e-016 1 I I #
vertex $-1 -1 $-1 $29 $55 #
ellipse-curve $-1 -1 $-1 4.4408920985006254e-015 -10.500000000000005 0 -4.2294210461910713e-016 1 0 -7.5500000000000007 -3.1932128898742595e-015 9.2460833335625187e-016 1 I I #
point $-1 -1 $-1 7.7500000000000053 -10.300000000000004 0 #
face $-1 -1 $-1 $56 $57 $3 $-1 $58 forward single #
loop $-1 -1 $-1 $59 $60 $32 #
torus-surface $-1 -1 $-1 2.7914178904861066e-015 -6.6000000000000032 0 4.2294210461910713e-016 -1 0 6.2000000000000011 0.20000000000000004 0 0 -1 forward_v I I I I #
loop $-1 -1 $-1 $-1 $49 $21 #
coedge $-1 -1 $-1 $48 $48 $61 $62 forward $33 $-1 #
coedge $-1 -1 $-1 $49 $49 $36 $50 reversed $47 $-1 #
edge $-1 -1 $-1 $63 -3.1415926535897931 $63 3.1415926535897931 $49 $64 forward @7 tangent #
loop $-1 -1 $-1 $-1 $37 $65 #
vertex $-1 -1 $-1 $38 $66 #
ellipse-curve $-1 -1 $-1 4.440892098500627e-015 -10.500000000000009 0 4.2294210461910713e-016 -1 0 3.5000000000000018 1.4802973661668758e-015 0 1 I I #
point $-1 -1 $-1 7.7500000000000044 -8.8000000000000025 -1.8982025386783976e-015 #
point $-1 -1 $-1 7.550000000000006 -10.500000000000004 -1.8492166667125037e-015 #
face $-1 -1 $-1 $67 $68 $3 $-1 $69 forward single #
loop $-1 -1 $-1 $70 $71 $44 #
plane-surface $-1 -1 $-1 6.4000000000000039 -6.8000000000000016 0 4.2294210461910713e-016 -1 0 0 0 10 reverse_v I I I I #
loop $-1 -1 $-1 $-1 $72 $32 #
coedge $-1 -1 $-1 $60 $60 $73 $74 forward $45 $-1 #
coedge $-1 -1 $-1 $61 $61 $48 $62 reversed $75 $-1 #
edge $-1 -1 $-1 $76 0 $76 6.2831853071795862 $61 $77 forward @7 unknown #
vertex $-1 -1 $-1 $50 $78 #
ellipse-curve $-1 -1 $-1 3.6373020997243221e-015 -8.600000000000005 0 4.2294210461910713e-016 -1 0 -7.5500000000000007 -3.1932128898742595e-015 9.2460833335625187e-016 1 I I #
face $-1 -1 $-1 $79 $80 $3 $-1 $81 forward single #
point $-1 -1 $-1 3.5000000000000062 -10.500000000000007 0 #
face $-1 -1 $-1 $82 $83 $3 $-1 $84 forward single #
loop $-1 -1 $-1 $85 $86 $56 #
cone-surface $-1 -1 $-1 2.4742113120217765e-015 -5.8500000000000041 0 4.2294210461910713e-016 -1 0 6.4000000000000012 2.8463690895042695e-015 0 1 I I -0 1 6.4000000000000012 reversed I I I I #
loop $-1 -1 $-1 $-1 $87 $44 #
coedge $-1 -1 $-1 $71 $71 $88 $89 reversed $57 $-1 #
coedge $-1 -1 $-1 $72 $72 $87 $90 forward $59 $-1 #
coedge $-1 -1 $-1 $73 $73 $60 $74 reversed $85 $-1 #
edge $-1 -1 $-1 $91 -3.1415926535897931 $91 3.1415926535897931 $73 $92 forward @7 tangent #
loop $-1 -1 $-1 $93 $61 $79 #
vertex $-1 -1 $-1 $62 $94 #
ellipse-curve $-1 -1 $-1 3.6373020997243221e-015 -8.600000000000005 0 4.2294210461910713e-016 -1 0 4.5 1.9032394707859818e-015 0 1 I I #
point $-1 -1 $-1 7.5500000000000043 -8.6000000000000014 0 #
face $-1 -1 $-1 $95 $75 $3 $-1 $96 forward single #
loop $-1 -1 $-1 $51 $97 $65 #
cone-surface $-1 -1 $-1 3.1720657846433042e-015 -7.5000000000000071 0 4.2294210461910713e-016 -1 0 3.5000000000000018 1.556608095822648e-015 0 1 I I -0 -1 3.5000000000000018 reversed I I I I #
face $-1 -1 $-1 $98 $99 $3 $-1 $100 forward single #
loop $-1 -1 $-1 $101 $102 $67 #
torus-surface $-1 -1 $-1 1.9878278917098033e-015 -4.7000000000000046 0 4.2294210461910713e-016 -1 0 7.2000000000000011 0.20000000000000004 0 0 -1 forward_v I I I I #
loop $-1 -1 $-1 $-1 $73 $56 #
coedge $-1 -1 $-1 $86 $86 $103 $104 forward $68 $-1 #
coedge $-1 -1 $-1 $87 $87 $72 $90 reversed $70 $-1 #
coedge $-1 -1 $-1 $88 $88 $71 $89 forward $93 $-1 #
edge $-1 -1 $-1 $105 0 $105 6.2831853071795862 $71 $106 forward @7 unknown #
edge $-1 -1 $-1 $107 -3.1415926535897931 $107 3.1415926535897931 $87 $108 forward @7 tangent #
vertex $-1 -1 $-1 $74 $109 #
ellipse-curve $-1 -1 $-1 2.7914178904861066e-015 -6.6000000000000032 0 4.2294210461910713e-016 -1 0 -6.4000000000000012 -2.7061686225238191e-015 7.8377395145430619e-016 1 I I #
loop $-1 -1 $-1 $-1 $88 $79 #
point $-1 -1 $-1 4.5000000000000036 -8.6000000000000032 0 #
face $-1 -1 $-1 $110 $111 $3 $-1 $112 forward single #
cone-surface $-1 -1 $-1 3.2566542055671253e-015 -7.7000000000000046 0 4.2294210461910713e-016 -1 0 4.5 2.0013532660576892e-015 0 1 I I -0 1 4.5 reversed I I I I #
coedge $-1 -1 $-1 $97 $97 $113 $114 reversed $80 $-1 #
face $-1 -1 $-1 $115 $116 $3 $-1 $117 forward single #
loop $-1 -1 $-1 $118 $103 $82 #
plane-surface $-1 -1 $-1 7.400000000000003 -4.9000000000000012 0 4.2294210461910713e-016 -1 0 0 0 10 reverse_v I I I I #
loop $-1 -1 $-1 $-1 $119 $67 #
coedge $-1 -1 $-1 $102 $102 $120 $121 forward $83 $-1 #
coedge $-1 -1 $-1 $103 $103 $86 $104 reversed $99 $-1 #
edge $-1 -1 $-1 $122 0 $122 6.2831853071795862 $103 $123 forward @7 unknown #
vertex $-1 -1 $-1 $89 $124 #
ellipse-curve $-1 -1 $-1 2.8760063114099286e-015 -6.8000000000000043 0 4.2294210461910713e-016 -1 0 4.5 1.9032394707859822e-015 0 1 I I #
vertex $-1 -1 $-1 $90 $125 #
ellipse-curve $-1 -1 $-1 2.8760063114099286e-015 -6.8000000000000043 0 -4.2294210461910713e-016 1 0 -6.2000000000000011 -2.6222410486384643e-015 7.5928101547135918e-016 1 I I #
point $-1 -1 $-1 6.4000000000000048 -6.6000000000000014 0 #
face $-1 -1 $-1 $126 $127 $3 $-1 $128 forward single #
loop $-1 -1 $-1 $129 $130 $95 #
plane-surface $-1 -1 $-1 3.5000000000000018 -4.5000000000000053 0 -4.2294210461910713e-016 1 0 0 0 -10 reverse_v I I I I #
coedge $-1 -1 $-1 $113 $113 $97 $114 forward $129 $-1 #
edge $-1 -1 $-1 $131 0 $131 6.2831853071795862 $113 $132 forward @7 unknown #
face $-1 -1 $-1 $133 $134 $3 $-1 $135 forward single #
loop $-1 -1 $-1 $136 $137 $98 #
cone-surface $-1 -1 $-1 1.6494742080145172e-015 -3.900000000000003 0 4.2294210461910713e-016 -1 0 7.4000000000000012 3.2911142597393122e-015 0 1 I I -0 1 7.4000000000000012 reversed I I I I #
loop $-1 -1 $-1 $-1 $138 $82 #
coedge $-1 -1 $-1 $119 $119 $138 $139 forward $101 $-1 #
coedge $-1 -1 $-1 $120 $120 $102 $121 reversed $136 $-1 #
edge $-1 -1 $-1 $140 -3.1415926535897931 $140 3.1415926535897931 $120 $141 forward @7 tangent #
vertex $-1 -1 $-1 $104 $142 #
ellipse-curve $-1 -1 $-1 2.0724163126336249e-015 -4.9000000000000039 0 4.2294210461910713e-016 -1 0 6.4000000000000012 2.7068294695622863e-015 0 1 I I #
point $-1 -1 $-1 4.5000000000000027 -6.8000000000000025 0 #
point $-1 -1 $-1 6.2000000000000046 -6.8000000000000016 -1.5185620309427184e-015 #
face $-1 -1 $-1 $143 $144 $3 $-1 $145 forward single #
loop $-1 -1 $-1 $146 $147 $110 #
cone-surface $-1 -1 $-1 -3.172065784643305e-015 7.5000000000000018 0 4.2294210461910713e-016 -1 0 3.5000000000000018 1.4039866365111037e-015 0 1 I I 0 -1 3.5000000000000018 forward I I I I #
loop $-1 -1 $-1 $-1 $113 $95 #
coedge $-1 -1 $-1 $130 $130 $148 $149 reversed $111 $-1 #
vertex $-1 -1 $-1 $114 $150 #
ellipse-curve $-1 -1 $-1 1.903239470785983e-015 -4.5000000000000071 0 4.2294210461910713e-016 -1 0 3.5 1.4802973661668749e-015 0 1 I I #
face $-1 -1 $-1 $151 $152 $3 $-1 $153 forward single #
loop $-1 -1 $-1 $154 $155 $115 #
torus-surface $-1 -1 $-1 1.1419436824715899e-015 -2.700000000000002 0 4.2294210461910713e-016 -1 0 8.5500000000000007 0.20000000000000004 0 0 -1 forward_v I I I I #
loop $-1 -1 $-1 $-1 $120 $98 #
coedge $-1 -1 $-1 $137 $137 $156 $157 forward $116 $-1 #
coedge $-1 -1 $-1 $138 $138 $119 $139 reversed $118 $-1 #
edge $-1 -1 $-1 $158 -3.1415926535897931 $158 3.1415926535897931 $138 $159 forward @7 tangent #
vertex $-1 -1 $-1 $121 $160 #
ellipse-curve $-1 -1 $-1 1.9878278917098033e-015 -4.7000000000000046 0 4.2294210461910713e-016 -1 0 -7.4000000000000012 -3.1225022567582528e-015 9.0623863136904144e-016 1 I I #
point $-1 -1 $-1 6.4000000000000039 -4.9000000000000012 0 #
face $-1 -1 $-1 $161 $162 $3 $-1 $163 forward single #
loop $-1 -1 $-1 $164 $165 $126 #
cone-surface $-1 -1 $-1 -3.2566542055671253e-015 7.7000000000000002 0 4.2294210461910713e-016 -1 0 4.5 1.8051256755142752e-015 0 1 I I 0 1 4.5 forward I I I I #
loop $-1 -1 $-1 $-1 $166 $110 #
coedge $-1 -1 $-1 $147 $147 $167 $168 forward $127 $-1 #
coedge $-1 -1 $-1 $148 $148 $130 $149 forward $162 $-1 #
edge $-1 -1 $-1 $169 0 $169 6.2831853071795862 $130 $170 forward @7 unknown #
point $-1 -1 $-1 3.5000000000000018 -4.5000000000000053 0 #
face $-1 -1 $-1 $171 $172 $3 $-1 $173 forward single #
loop $-1 -1 $-1 $174 $175 $133 #
cone-surface $-1 -1 $-1 -6.1326605169770413e-016 1.4499999999999968 0 4.2294210461910713e-016 -1 0 8.7500000000000018 3.509966591277757e-015 0 1 I I 0 1 8.7500000000000018 forward I I I I #
loop $-1 -1 $-1 $-1 $176 $115 #
coedge $-1 -1 $-1 $155 $155 $177 $178 forward $134 $-1 #
coedge $-1 -1 $-1 $156 $156 $137 $157 reversed $172 $-1 #
edge $-1 -1 $-1 $179 0 $179 6.2831853071795862 $156 $180 forward @7 unknown #
vertex $-1 -1 $-1 $139 $181 #
ellipse-curve $-1 -1 $-1 2.0724163126336249e-015 -4.9000000000000048 0 -4.2294210461910713e-016 1 0 -7.2000000000000011 -3.0451831532575717e-015 8.8174569538609443e-016 1 I I #
point $-1 -1 $-1 7.400000000000003 -4.7000000000000011 0 #
face $-1 -1 $-1 $-1 $182 $3 $-1 $183 forward single #
loop $-1 -1 $-1 $184 $148 $143 #
cone-surface $-1 -1 $-1 -9.5161973539299109e-016 2.25 0 4.2294210461910713e-016 -1 0 5 2.0056951950158611e-015 0 1 I I 0 -1 5 forward I I I I #
loop $-1 -1 $-1 $-1 $185 $126 #
coedge $-1 -1 $-1 $165 $165 $186 $187 forward $144 $-1 #
coedge $-1 -1 $-1 $166 $166 $188 $189 reversed $146 $-1 #
coedge $-1 -1 $-1 $167 $167 $147 $168 reversed $190 $-1 #
edge $-1 -1 $-1 $191 0 $191 6.2831853071795862 $167 $192 forward @7 unknown #
vertex $-1 -1 $-1 $149 $193 #
ellipse-curve $-1 -1 $-1 1.903239470785983e-015 -4.5000000000000062 0 4.2294210461910713e-016 -1 0 5 2.1147105230955359e-015 0 1 I I #
face $-1 -1 $-1 $194 $195 $3 $-1 $196 forward single #
loop $-1 -1 $-1 $197 $156 $151 #
plane-surface $-1 -1 $-1 8.7500000000000018 -2.8999999999999981 0 4.2294210461910713e-016 -1 0 0 0 10 reverse_v I I I I #
loop $-1 -1 $-1 $-1 $177 $133 #
coedge $-1 -1 $-1 $175 $175 $198 $199 reversed $152 $-1 #
coedge $-1 -1 $-1 $176 $176 $200 $201 forward $154 $-1 #
coedge $-1 -1 $-1 $177 $177 $155 $178 reversed $174 $-1 #
edge $-1 -1 $-1 $202 -3.1415926535897931 $202 3.1415926535897931 $177 $203 forward @7 tangent #
vertex $-1 -1 $-1 $157 $204 #
ellipse-curve $-1 -1 $-1 1.226532103395409e-015 -2.9000000000000012 0 4.2294210461910713e-016 -1 0 7.4000000000000012 3.1297715741813936e-015 0 1 I I #
point $-1 -1 $-1 7.2000000000000028 -4.9000000000000021 -1.7634913907721889e-015 #
loop $-1 -1 $-1 $190 $205 $161 #
plane-surface $-1 -1 $-1 3.4999999999999982 4.5000000000000036 0 4.2294210461910713e-016 -1 0 0 0 -10 forward_v I I I I #
loop $-1 -1 $-1 $-1 $206 $143 #
coedge $-1 -1 $-1 $185 $185 $207 $208 reversed $164 $-1 #
coedge $-1 -1 $-1 $186 $186 $165 $187 reversed $209 $-1 #
edge $-1 -1 $-1 $210 0 $210 6.2831853071795862 $165 $211 forward @7 unknown #
coedge $-1 -1 $-1 $188 $188 $166 $189 forward $212 $-1 #
edge $-1 -1 $-1 $213 0 $213 6.2831853071795862 $188 $214 forward @7 unknown #
loop $-1 -1 $-1 $-1 $167 $161 #
vertex $-1 -1 $-1 $168 $215 #
ellipse-curve $-1 -1 $-1 -1.903239470785983e-015 4.5000000000000027 0 4.2294210461910713e-016 -1 0 3.5 1.4802973661668749e-015 0 1 I I #
point $-1 -1 $-1 5.0000000000000018 -4.5000000000000036 0 #
face $-1 -1 $-1 $216 $217 $3 $-1 $218 forward single #
loop $-1 -1 $-1 $219 $220 $171 #
torus-surface $-1 -1 $-1 -4.3563036775768034e-015 10.300000000000002 0 4.2294210461910713e-016 -1 0 7.5500000000000007 0.20000000000000004 0 0 -1 forward_v I I I I #
loop $-1 -1 $-1 $-1 $200 $151 #
coedge $-1 -1 $-1 $198 $198 $175 $199 forward $221 $-1 #
edge $-1 -1 $-1 $222 -3.1415926535897931 $222 3.1415926535897931 $175 $223 forward @7 tangent #
coedge $-1 -1 $-1 $200 $200 $176 $201 reversed $197 $-1 #
edge $-1 -1 $-1 $224 -3.1415926535897931 $224 3.1415926535897931 $200 $225 forward @7 tangent #
vertex $-1 -1 $-1 $178 $226 #
ellipse-curve $-1 -1 $-1 1.1419436824715899e-015 -2.700000000000002 0 4.2294210461910713e-016 -1 0 -8.7500000000000018 -3.7123082385903672e-015 1.0715659492539341e-015 1 I I #
point $-1 -1 $-1 7.4000000000000021 -2.8999999999999986 0 #
coedge $-1 -1 $-1 $205 $205 $206 $227 forward $182 $-1 #
coedge $-1 -1 $-1 $206 $206 $205 $227 reversed $184 $-1 #
coedge $-1 -1 $-1 $207 $207 $185 $208 forward $228 $-1 #
edge $-1 -1 $-1 $229 0 $229 6.2831853071795862 $207 $230 forward @7 unknown #
loop $-1 -1 $-1 $231 $186 $232 #
vertex $-1 -1 $-1 $187 $233 #
ellipse-curve $-1 -1 $-1 -3.6373020997243213e-015 8.6000000000000014 0 4.2294210461910713e-016 -1 0 4.5 1.9032394707859818e-015 0 1 I I #
loop $-1 -1 $-1 $234 $188 $216 #
vertex $-1 -1 $-1 $189 $235 #
ellipse-curve $-1 -1 $-1 -4.440892098500627e-015 10.500000000000005 0 4.2294210461910713e-016 -1 0 3.5000000000000018 1.4802973661668758e-015 0 1 I I #
point $-1 -1 $-1 3.4999999999999982 4.5000000000000036 0 #
face $-1 -1 $-1 $236 $212 $3 $-1 $237 forward single #
loop $-1 -1 $-1 $238 $239 $194 #
cone-surface $-1 -1 $-1 -4.0390970991124741e-015 9.5500000000000025 0 4.2294210461910713e-016 -1 0 7.7500000000000018 3.1088275522745851e-015 0 1 I I 0 1 7.7500000000000018 forward I I I I #
loop $-1 -1 $-1 $-1 $240 $171 #
coedge $-1 -1 $-1 $220 $220 $241 $242 forward $195 $-1 #
loop $-1 -1 $-1 $-1 $198 $243 #
vertex $-1 -1 $-1 $199 $244 #
ellipse-curve $-1 -1 $-1 -1.1419436824715879e-015 2.6999999999999966 0 -4.2294210461910713e-016 1 0 -8.7500000000000018 -3.7123082385903672e-015 1.0715659492539341e-015 1 I I #
vertex $-1 -1 $-1 $201 $245 #
ellipse-curve $-1 -1 $-1 1.2265321033954114e-015 -2.9000000000000021 0 -4.2294210461910713e-016 1 0 -8.5500000000000007 -3.6161549944933668e-015 1.0470730132709872e-015 1 I I #
point $-1 -1 $-1 8.7500000000000018 -2.699999999999998 0 #
edge $-1 -1 $-1 $246 0 $246 6.2831853071795862 $205 $247 forward @7 unknown #
loop $-1 -1 $-1 $248 $207 $249 #
vertex $-1 -1 $-1 $208 $250 #
ellipse-curve $-1 -1 $-1 -2.8760063114099286e-015 6.7999999999999989 0 4.2294210461910713e-016 -1 0 4.5 1.9032394707859822e-015 0 1 I I #
loop $-1 -1 $-1 $-1 $251 $232 #
face $-1 -1 $-1 $252 $209 $3 $-1 $253 forward single #
point $-1 -1 $-1 4.4999999999999964 8.6000000000000014 0 #
loop $-1 -1 $-1 $-1 $241 $216 #
point $-1 -1 $-1 3.4999999999999973 10.500000000000005 0 #
face $-1 -1 $-1 $232 $254 $3 $-1 $255 forward single #
plane-surface $-1 -1 $-1 7.7499999999999956 10.500000000000005 0 -4.2294210461910713e-016 1 0 0 0 10 forward_v I I I I #
loop $-1 -1 $-1 $-1 $256 $194 #
coedge $-1 -1 $-1 $239 $239 $257 $258 reversed $217 $-1 #
coedge $-1 -1 $-1 $240 $240 $256 $259 forward $219 $-1 #
coedge $-1 -1 $-1 $241 $241 $220 $242 reversed $234 $-1 #
edge $-1 -1 $-1 $260 -3.1415926535897931 $260 3.1415926535897931 $241 $261 forward @7 tangent #
face $-1 -1 $-1 $262 $263 $3 $-1 $264 forward single #
point $-1 -1 $-1 8.75 2.7000000000000006 -2.1431318985078682e-015 #
point $-1 -1 $-1 8.5500000000000025 -2.8999999999999981 -2.0941460265419744e-015 #
vertex $-1 -1 $-1 $227 $265 #
ellipse-curve $-1 -1 $-1 -1.903239470785983e-015 4.5000000000000018 0 4.2294210461910713e-016 -1 0 5 2.1147105230955359e-015 0 1 I I #
loop $-1 -1 $-1 $-1 $266 $249 #
face $-1 -1 $-1 $267 $228 $3 $-1 $268 forward single #
point $-1 -1 $-1 4.4999999999999973 6.8000000000000016 0 #
coedge $-1 -1 $-1 $251 $251 $269 $270 reversed $231 $-1 #
face $-1 -1 $-1 $249 $271 $3 $-1 $272 forward single #
plane-surface $-1 -1 $-1 4.4999999999999964 8.6000000000000014 0 4.2294210461910713e-016 -1 0 0 0 -10 forward_v I I I I #
loop $-1 -1 $-1 $273 $257 $236 #
torus-surface $-1 -1 $-1 -3.7218905206481424e-015 8.8000000000000007 0 4.2294210461910713e-016 -1 0 7.5500000000000007 0.20000000000000004 0 0 -1 forward_v I I I I #
coedge $-1 -1 $-1 $256 $256 $240 $259 reversed $238 $-1 #
coedge $-1 -1 $-1 $257 $257 $239 $258 forward $254 $-1 #
edge $-1 -1 $-1 $274 -3.1415926535897931 $274 3.1415926535897931 $239 $275 forward @7 tangent #
edge $-1 -1 $-1 $276 -3.1415926535897931 $276 3.1415926535897931 $256 $277 forward @7 tangent #
vertex $-1 -1 $-1 $242 $278 #
ellipse-curve $-1 -1 $-1 -4.4408920985006246e-015 10.500000000000004 0 4.2294210461910713e-016 -1 0 -7.5500000000000007 -3.1932128898742595e-015 9.2460833335625187e-016 1 I I #
face $-1 -1 $-1 $65 $279 $3 $-1 $280 forward single #
loop $-1 -1 $-1 $221 $281 $243 #
torus-surface $-1 -1 $-1 -1.1419436824715879e-015 2.6999999999999966 0 4.2294210461910713e-016 -1 0 8.5500000000000007 0.20000000000000004 0 0 -1 forward_v I I I I #
point $-1 -1 $-1 4.9999999999999982 4.5000000000000036 0 #
coedge $-1 -1 $-1 $266 $266 $282 $283 reversed $248 $-1 #
face $-1 -1 $-1 $284 $285 $3 $-1 $286 forward single #
plane-surface $-1 -1 $-1 6.3999999999999977 6.8000000000000025 0 -4.2294210461910713e-016 1 0 0 0 10 forward_v I I I I #
coedge $-1 -1 $-1 $269 $269 $251 $270 forward $273 $-1 #
edge $-1 -1 $-1 $287 -3.1415926535897931 $287 3.1415926535897931 $251 $288 forward @7 tangent #
loop $-1 -1 $-1 $289 $282 $252 #
torus-surface $-1 -1 $-1 -2.7914178904861066e-015 6.5999999999999996 0 4.2294210461910713e-016 -1 0 6.2000000000000011 0.20000000000000004 0 0 -1 forward_v I I I I #
loop $-1 -1 $-1 $-1 $269 $236 #
vertex $-1 -1 $-1 $258 $290 #
ellipse-curve $-1 -1 $-1 -3.7218905206481424e-015 8.8000000000000007 0 4.2294210461910713e-016 -1 0 -7.7500000000000018 -3.2612801348363977e-015 9.4910126933919878e-016 1 I I #
vertex $-1 -1 $-1 $259 $291 #
ellipse-curve $-1 -1 $-1 -4.3563036775768034e-015 10.300000000000002 0 -4.2294210461910713e-016 1 0 -7.7500000000000018 -3.2612801348363977e-015 9.4910126933919878e-016 1 I I #
point $-1 -1 $-1 7.5499999999999972 10.500000000000005 0 #
loop $-1 -1 $-1 $292 $293 $262 #
plane-surface $-1 -1 $-1 8.75 2.9000000000000008 0 -4.2294210461910713e-016 1 0 0 0 10 forward_v I I I I #
coedge $-1 -1 $-1 $281 $281 $294 $295 forward $263 $-1 #
coedge $-1 -1 $-1 $282 $282 $266 $283 forward $271 $-1 #
edge $-1 -1 $-1 $296 -3.1415926535897931 $296 3.1415926535897931 $266 $297 forward @7 tangent #
face $-1 -1 $-1 $298 $299 $3 $-1 $300 forward single #
loop $-1 -1 $-1 $301 $302 $267 #
cone-surface $-1 -1 $-1 -2.4742113120217765e-015 5.8499999999999996 0 4.2294210461910713e-016 -1 0 6.4000000000000012 2.5672898496203027e-015 0 1 I I 0 1 6.4000000000000012 forward I I I I #
vertex $-1 -1 $-1 $270 $303 #
ellipse-curve $-1 -1 $-1 -3.6373020997243213e-015 8.5999999999999996 0 -4.2294210461910713e-016 1 0 -7.5500000000000007 -3.1932128898742595e-015 9.2460833335625187e-016 1 I I #
loop $-1 -1 $-1 $-1 $304 $252 #
point $-1 -1 $-1 7.7499999999999982 8.8000000000000043 0 #
point $-1 -1 $-1 7.7499999999999964 10.300000000000004 -1.8982025386783976e-015 #
loop $-1 -1 $-1 $-1 $294 $262 #
coedge $-1 -1 $-1 $293 $293 $305 $306 forward $279 $-1 #
coedge $-1 -1 $-1 $294 $294 $281 $295 reversed $292 $-1 #
edge $-1 -1 $-1 $307 -3.1415926535897931 $307 3.1415926535897931 $294 $308 forward @7 tangent #
vertex $-1 -1 $-1 $283 $309 #
ellipse-curve $-1 -1 $-1 -2.8760063114099286e-015 6.8000000000000007 0 4.2294210461910713e-016 -1 0 -6.2000000000000011 -2.6222410486384643e-015 7.5928101547135918e-016 1 I I #
face $-1 -1 $-1 $310 $311 $3 $-1 $312 forward single #
loop $-1 -1 $-1 $313 $314 $284 #
torus-surface $-1 -1 $-1 -1.9878278917098033e-015 4.6999999999999993 0 4.2294210461910713e-016 -1 0 7.2000000000000011 0.20000000000000004 0 0 -1 forward_v I I I I #
loop $-1 -1 $-1 $-1 $315 $267 #
coedge $-1 -1 $-1 $302 $302 $316 $317 reversed $285 $-1 #
point $-1 -1 $-1 7.549999999999998 8.6000000000000032 -1.8492166667125037e-015 #
coedge $-1 -1 $-1 $304 $304 $315 $318 forward $289 $-1 #
coedge $-1 -1 $-1 $305 $305 $293 $306 reversed $319 $-1 #
edge $-1 -1 $-1 $320 0 $320 6.2831853071795862 $293 $321 forward @7 unknown #
vertex $-1 -1 $-1 $295 $322 #
ellipse-curve $-1 -1 $-1 -1.2265321033954096e-015 2.8999999999999968 0 4.2294210461910713e-016 -1 0 -8.5500000000000007 -3.6161549944933668e-015 1.0470730132709872e-015 1 I I #
point $-1 -1 $-1 6.1999999999999975 6.8000000000000025 0 #
face $-1 -1 $-1 $243 $319 $3 $-1 $323 forward single #
loop $-1 -1 $-1 $324 $316 $298 #
plane-surface $-1 -1 $-1 7.3999999999999986 4.900000000000003 0 -4.2294210461910713e-016 1 0 0 0 10 forward_v I I I I #
loop $-1 -1 $-1 $-1 $325 $284 #
coedge $-1 -1 $-1 $314 $314 $326 $327 forward $299 $-1 #
coedge $-1 -1 $-1 $315 $315 $304 $318 reversed $301 $-1 #
coedge $-1 -1 $-1 $316 $316 $302 $317 forward $311 $-1 #
edge $-1 -1 $-1 $328 0 $328 6.2831853071795862 $316 $329 forward @7 unknown #
edge $-1 -1 $-1 $330 -3.1415926535897931 $330 3.1415926535897931 $315 $331 forward @7 tangent #
loop $-1 -1 $-1 $332 $305 $310 #
vertex $-1 -1 $-1 $306 $333 #
ellipse-curve $-1 -1 $-1 -1.2265321033954096e-015 2.8999999999999968 0 4.2294210461910713e-016 -1 0 7.4000000000000012 3.1297715741813936e-015 0 1 I I #
point $-1 -1 $-1 8.5500000000000007 2.9000000000000008 0 #
cone-surface $-1 -1 $-1 -1.6494742080145172e-015 3.8999999999999986 0 4.2294210461910713e-016 -1 0 7.4000000000000012 2.968428888623475e-015 0 1 I I 0 1 7.4000000000000012 forward I I I I #
loop $-1 -1 $-1 $-1 $326 $298 #
coedge $-1 -1 $-1 $325 $325 $334 $335 forward $313 $-1 #
coedge $-1 -1 $-1 $326 $326 $314 $327 reversed $324 $-1 #
edge $-1 -1 $-1 $336 -3.1415926535897931 $336 3.1415926535897931 $326 $337 forward @7 tangent #
vertex $-1 -1 $-1 $317 $338 #
ellipse-curve $-1 -1 $-1 -2.0724163126336249e-015 4.9000000000000004 0 4.2294210461910713e-016 -1 0 6.4000000000000012 2.7068294695622863e-015 0 1 I I #
vertex $-1 -1 $-1 $318 $339 #
ellipse-curve $-1 -1 $-1 -2.7914178904861066e-015 6.5999999999999996 0 -4.2294210461910713e-016 1 0 -6.4000000000000012 -2.7061686225238191e-015 7.8377395145430619e-016 1 I I #
loop $-1 -1 $-1 $-1 $334 $310 #
point $-1 -1 $-1 7.4000000000000004 2.9000000000000004 0 #
coedge $-1 -1 $-1 $334 $334 $325 $335 reversed $332 $-1 #
edge $-1 -1 $-1 $340 -3.1415926535897931 $340 3.1415926535897931 $334 $341 forward @7 tangent #
vertex $-1 -1 $-1 $327 $342 #
ellipse-curve $-1 -1 $-1 -2.0724163126336253e-015 4.9000000000000004 0 4.2294210461910713e-016 -1 0 -7.2000000000000011 -3.0451831532575717e-015 8.8174569538609443e-016 1 I I #
point $-1 -1 $-1 6.3999999999999986 4.900000000000003 0 #
point $-1 -1 $-1 6.3999999999999977 6.6000000000000014 -1.5675479029086124e-015 #
vertex $-1 -1 $-1 $335 $343 #
ellipse-curve $-1 -1 $-1 -1.9878278917098033e-015 4.6999999999999993 0 -4.2294210461910713e-016 1 0 -7.4000000000000012 -3.1225022567582528e-015 9.0623863136904144e-016 1 I I #
point $-1 -1 $-1 7.1999999999999984 4.900000000000003 0 #
point $-1 -1 $-1 7.3999999999999986 4.7000000000000028 -1.8124772627380829e-015 #
End-of-ACIS-data 